<mxfile host="app.diagrams.net" modified="2024-02-06T13:08:07.673Z" agent="Mozilla/5.0 (Windows NT 10.0; Win64; x64) AppleWebKit/537.36 (KHTML, like Gecko) Chrome/120.0.0.0 Safari/537.36" etag="MlAuVNeI_HlIxu_jVYvv" version="23.1.1" type="device" pages="3">
  <diagram name="Búsqueda de Documentos" id="4P2Duc26Tc6037qR64lj">
    <mxGraphModel dx="880" dy="460" grid="1" gridSize="10" guides="1" tooltips="1" connect="1" arrows="1" fold="1" page="1" pageScale="1" pageWidth="827" pageHeight="1169" math="0" shadow="0">
      <root>
        <mxCell id="0" />
        <mxCell id="1" parent="0" />
        <mxCell id="YPJepaTygJURjF18XzgQ-2" value="Fin" style="html=1;dashed=0;whiteSpace=wrap;shape=mxgraph.dfd.start" vertex="1" parent="1">
          <mxGeometry x="313" y="1060" width="124" height="50" as="geometry" />
        </mxCell>
        <mxCell id="YPJepaTygJURjF18XzgQ-6" style="edgeStyle=orthogonalEdgeStyle;rounded=0;orthogonalLoop=1;jettySize=auto;html=1;exitX=0.5;exitY=0.5;exitDx=0;exitDy=20;exitPerimeter=0;" edge="1" parent="1" source="YPJepaTygJURjF18XzgQ-3" target="YPJepaTygJURjF18XzgQ-4">
          <mxGeometry relative="1" as="geometry" />
        </mxCell>
        <mxCell id="YPJepaTygJURjF18XzgQ-3" value="Inicio" style="html=1;dashed=0;whiteSpace=wrap;shape=mxgraph.dfd.start" vertex="1" parent="1">
          <mxGeometry x="310" y="70" width="130" height="40" as="geometry" />
        </mxCell>
        <mxCell id="YPJepaTygJURjF18XzgQ-8" value="" style="edgeStyle=orthogonalEdgeStyle;rounded=0;orthogonalLoop=1;jettySize=auto;html=1;" edge="1" parent="1" source="YPJepaTygJURjF18XzgQ-4" target="YPJepaTygJURjF18XzgQ-7">
          <mxGeometry relative="1" as="geometry" />
        </mxCell>
        <mxCell id="YPJepaTygJURjF18XzgQ-4" value="Palabras clave" style="shape=parallelogram;html=1;strokeWidth=2;perimeter=parallelogramPerimeter;whiteSpace=wrap;rounded=1;arcSize=12;size=0.23;" vertex="1" parent="1">
          <mxGeometry x="300" y="160" width="150" height="50" as="geometry" />
        </mxCell>
        <mxCell id="YPJepaTygJURjF18XzgQ-10" value="" style="edgeStyle=orthogonalEdgeStyle;rounded=0;orthogonalLoop=1;jettySize=auto;html=1;" edge="1" parent="1" source="YPJepaTygJURjF18XzgQ-7" target="YPJepaTygJURjF18XzgQ-9">
          <mxGeometry relative="1" as="geometry" />
        </mxCell>
        <mxCell id="YPJepaTygJURjF18XzgQ-7" value="Búsqueda de Documentos" style="whiteSpace=wrap;html=1;strokeWidth=2;rounded=1;arcSize=12;" vertex="1" parent="1">
          <mxGeometry x="315" y="285" width="120" height="60" as="geometry" />
        </mxCell>
        <mxCell id="YPJepaTygJURjF18XzgQ-12" value="" style="edgeStyle=orthogonalEdgeStyle;rounded=0;orthogonalLoop=1;jettySize=auto;html=1;" edge="1" parent="1" source="YPJepaTygJURjF18XzgQ-9" target="YPJepaTygJURjF18XzgQ-11">
          <mxGeometry relative="1" as="geometry" />
        </mxCell>
        <mxCell id="YPJepaTygJURjF18XzgQ-18" value="Si" style="edgeLabel;html=1;align=center;verticalAlign=middle;resizable=0;points=[];" vertex="1" connectable="0" parent="YPJepaTygJURjF18XzgQ-12">
          <mxGeometry x="-0.0578" y="-2" relative="1" as="geometry">
            <mxPoint x="-13" y="-48" as="offset" />
          </mxGeometry>
        </mxCell>
        <mxCell id="YPJepaTygJURjF18XzgQ-9" value="Se encontraron documentos?" style="rhombus;whiteSpace=wrap;html=1;strokeWidth=2;rounded=1;arcSize=12;" vertex="1" parent="1">
          <mxGeometry x="312.5" y="420" width="125" height="125" as="geometry" />
        </mxCell>
        <mxCell id="YPJepaTygJURjF18XzgQ-14" value="" style="edgeStyle=orthogonalEdgeStyle;rounded=0;orthogonalLoop=1;jettySize=auto;html=1;" edge="1" parent="1" source="YPJepaTygJURjF18XzgQ-11" target="YPJepaTygJURjF18XzgQ-13">
          <mxGeometry relative="1" as="geometry" />
        </mxCell>
        <mxCell id="YPJepaTygJURjF18XzgQ-11" value="Filtrado de Documentos" style="whiteSpace=wrap;html=1;strokeWidth=2;rounded=1;arcSize=12;" vertex="1" parent="1">
          <mxGeometry x="315" y="657.5" width="120" height="60" as="geometry" />
        </mxCell>
        <mxCell id="YPJepaTygJURjF18XzgQ-16" value="" style="edgeStyle=orthogonalEdgeStyle;rounded=0;orthogonalLoop=1;jettySize=auto;html=1;" edge="1" parent="1" source="YPJepaTygJURjF18XzgQ-13" target="YPJepaTygJURjF18XzgQ-15">
          <mxGeometry relative="1" as="geometry" />
        </mxCell>
        <mxCell id="YPJepaTygJURjF18XzgQ-13" value="Mostrar Documentos" style="whiteSpace=wrap;html=1;strokeWidth=2;rounded=1;arcSize=12;" vertex="1" parent="1">
          <mxGeometry x="315" y="797.5" width="120" height="60" as="geometry" />
        </mxCell>
        <mxCell id="YPJepaTygJURjF18XzgQ-17" style="edgeStyle=orthogonalEdgeStyle;rounded=0;orthogonalLoop=1;jettySize=auto;html=1;exitX=0.5;exitY=1;exitDx=0;exitDy=0;" edge="1" parent="1" source="YPJepaTygJURjF18XzgQ-15" target="YPJepaTygJURjF18XzgQ-2">
          <mxGeometry relative="1" as="geometry" />
        </mxCell>
        <mxCell id="YPJepaTygJURjF18XzgQ-15" value="Seleccionar Documento" style="shape=parallelogram;perimeter=parallelogramPerimeter;whiteSpace=wrap;html=1;fixedSize=1;strokeWidth=2;rounded=1;arcSize=12;" vertex="1" parent="1">
          <mxGeometry x="315" y="937.5" width="120" height="60" as="geometry" />
        </mxCell>
        <mxCell id="YPJepaTygJURjF18XzgQ-19" style="edgeStyle=orthogonalEdgeStyle;rounded=0;orthogonalLoop=1;jettySize=auto;html=1;exitX=1;exitY=0.5;exitDx=0;exitDy=0;entryX=1;entryY=0.5;entryDx=0;entryDy=0;entryPerimeter=0;" edge="1" parent="1" source="YPJepaTygJURjF18XzgQ-9" target="YPJepaTygJURjF18XzgQ-2">
          <mxGeometry relative="1" as="geometry">
            <Array as="points">
              <mxPoint x="500" y="483" />
              <mxPoint x="500" y="1085" />
            </Array>
          </mxGeometry>
        </mxCell>
        <mxCell id="YPJepaTygJURjF18XzgQ-20" value="No" style="edgeLabel;html=1;align=center;verticalAlign=middle;resizable=0;points=[];" vertex="1" connectable="0" parent="YPJepaTygJURjF18XzgQ-19">
          <mxGeometry x="-0.919" relative="1" as="geometry">
            <mxPoint x="-26" y="-12" as="offset" />
          </mxGeometry>
        </mxCell>
      </root>
    </mxGraphModel>
  </diagram>
  <diagram id="1T7BF2pOI1GpL-Okr52q" name="Subir Documentos">
    <mxGraphModel dx="880" dy="460" grid="1" gridSize="10" guides="1" tooltips="1" connect="1" arrows="1" fold="1" page="1" pageScale="1" pageWidth="827" pageHeight="1169" math="0" shadow="0">
      <root>
        <mxCell id="0" />
        <mxCell id="1" parent="0" />
        <mxCell id="VlGHfWYHbSTGs9eEfxMU-2" value="" style="edgeStyle=orthogonalEdgeStyle;rounded=0;orthogonalLoop=1;jettySize=auto;html=1;" edge="1" parent="1" source="iQP5UtAaY2azwjIbkdg7-1" target="VlGHfWYHbSTGs9eEfxMU-1">
          <mxGeometry relative="1" as="geometry" />
        </mxCell>
        <mxCell id="iQP5UtAaY2azwjIbkdg7-1" value="Inicio" style="html=1;dashed=0;whiteSpace=wrap;shape=mxgraph.dfd.start" vertex="1" parent="1">
          <mxGeometry x="310" y="70" width="130" height="40" as="geometry" />
        </mxCell>
        <mxCell id="y76dJyfz-l1GJOD7nQXj-2" value="" style="edgeStyle=orthogonalEdgeStyle;rounded=0;orthogonalLoop=1;jettySize=auto;html=1;" edge="1" parent="1" source="VlGHfWYHbSTGs9eEfxMU-1" target="y76dJyfz-l1GJOD7nQXj-1">
          <mxGeometry relative="1" as="geometry" />
        </mxCell>
        <mxCell id="VlGHfWYHbSTGs9eEfxMU-1" value="Ingresar datos y documento" style="shape=parallelogram;perimeter=parallelogramPerimeter;whiteSpace=wrap;html=1;fixedSize=1;dashed=0;" vertex="1" parent="1">
          <mxGeometry x="315" y="180" width="120" height="60" as="geometry" />
        </mxCell>
        <mxCell id="y76dJyfz-l1GJOD7nQXj-4" value="" style="edgeStyle=orthogonalEdgeStyle;rounded=0;orthogonalLoop=1;jettySize=auto;html=1;" edge="1" parent="1" source="y76dJyfz-l1GJOD7nQXj-1" target="y76dJyfz-l1GJOD7nQXj-3">
          <mxGeometry relative="1" as="geometry" />
        </mxCell>
        <mxCell id="y76dJyfz-l1GJOD7nQXj-1" value="Validar formato de datos y extension de documento" style="rounded=1;whiteSpace=wrap;html=1;dashed=0;" vertex="1" parent="1">
          <mxGeometry x="315" y="320" width="120" height="60" as="geometry" />
        </mxCell>
        <mxCell id="y76dJyfz-l1GJOD7nQXj-5" style="edgeStyle=orthogonalEdgeStyle;rounded=0;orthogonalLoop=1;jettySize=auto;html=1;exitX=1;exitY=0.5;exitDx=0;exitDy=0;entryX=1;entryY=0.5;entryDx=0;entryDy=0;" edge="1" parent="1" source="y76dJyfz-l1GJOD7nQXj-3" target="VlGHfWYHbSTGs9eEfxMU-1">
          <mxGeometry relative="1" as="geometry">
            <Array as="points">
              <mxPoint x="570" y="490" />
              <mxPoint x="570" y="210" />
            </Array>
          </mxGeometry>
        </mxCell>
        <mxCell id="y76dJyfz-l1GJOD7nQXj-6" value="No" style="edgeLabel;html=1;align=center;verticalAlign=middle;resizable=0;points=[];" vertex="1" connectable="0" parent="y76dJyfz-l1GJOD7nQXj-5">
          <mxGeometry x="-0.7655" y="-2" relative="1" as="geometry">
            <mxPoint x="-53" y="-12" as="offset" />
          </mxGeometry>
        </mxCell>
        <mxCell id="y76dJyfz-l1GJOD7nQXj-8" value="" style="edgeStyle=orthogonalEdgeStyle;rounded=0;orthogonalLoop=1;jettySize=auto;html=1;" edge="1" parent="1" source="y76dJyfz-l1GJOD7nQXj-3" target="y76dJyfz-l1GJOD7nQXj-7">
          <mxGeometry relative="1" as="geometry" />
        </mxCell>
        <mxCell id="y76dJyfz-l1GJOD7nQXj-3" value="Son correctos" style="rhombus;whiteSpace=wrap;html=1;rounded=1;dashed=0;" vertex="1" parent="1">
          <mxGeometry x="335" y="450" width="80" height="80" as="geometry" />
        </mxCell>
        <mxCell id="y76dJyfz-l1GJOD7nQXj-10" value="" style="edgeStyle=orthogonalEdgeStyle;rounded=0;orthogonalLoop=1;jettySize=auto;html=1;" edge="1" parent="1" source="y76dJyfz-l1GJOD7nQXj-7" target="y76dJyfz-l1GJOD7nQXj-9">
          <mxGeometry relative="1" as="geometry" />
        </mxCell>
        <mxCell id="y76dJyfz-l1GJOD7nQXj-7" value="Verificar si hay conflicto con el Nombre" style="rounded=1;whiteSpace=wrap;html=1;dashed=0;" vertex="1" parent="1">
          <mxGeometry x="315" y="620" width="120" height="60" as="geometry" />
        </mxCell>
        <mxCell id="y76dJyfz-l1GJOD7nQXj-12" value="" style="edgeStyle=orthogonalEdgeStyle;rounded=0;orthogonalLoop=1;jettySize=auto;html=1;entryX=0;entryY=0.5;entryDx=0;entryDy=0;" edge="1" parent="1" source="y76dJyfz-l1GJOD7nQXj-9" target="y76dJyfz-l1GJOD7nQXj-16">
          <mxGeometry relative="1" as="geometry">
            <mxPoint x="510" y="790" as="targetPoint" />
          </mxGeometry>
        </mxCell>
        <mxCell id="y76dJyfz-l1GJOD7nQXj-14" value="Si" style="edgeLabel;html=1;align=center;verticalAlign=middle;resizable=0;points=[];" vertex="1" connectable="0" parent="y76dJyfz-l1GJOD7nQXj-12">
          <mxGeometry x="-0.2" relative="1" as="geometry">
            <mxPoint x="-38" y="-10" as="offset" />
          </mxGeometry>
        </mxCell>
        <mxCell id="y76dJyfz-l1GJOD7nQXj-19" value="" style="edgeStyle=orthogonalEdgeStyle;rounded=0;orthogonalLoop=1;jettySize=auto;html=1;" edge="1" parent="1" source="y76dJyfz-l1GJOD7nQXj-9" target="y76dJyfz-l1GJOD7nQXj-18">
          <mxGeometry relative="1" as="geometry" />
        </mxCell>
        <mxCell id="y76dJyfz-l1GJOD7nQXj-20" value="No" style="edgeLabel;html=1;align=center;verticalAlign=middle;resizable=0;points=[];" vertex="1" connectable="0" parent="y76dJyfz-l1GJOD7nQXj-19">
          <mxGeometry x="-0.34" y="-2" relative="1" as="geometry">
            <mxPoint x="-13" y="-33" as="offset" />
          </mxGeometry>
        </mxCell>
        <mxCell id="y76dJyfz-l1GJOD7nQXj-9" value="Existe conflicto?" style="rhombus;whiteSpace=wrap;html=1;rounded=1;dashed=0;" vertex="1" parent="1">
          <mxGeometry x="335" y="750" width="80" height="80" as="geometry" />
        </mxCell>
        <mxCell id="y76dJyfz-l1GJOD7nQXj-13" style="edgeStyle=orthogonalEdgeStyle;rounded=0;orthogonalLoop=1;jettySize=auto;html=1;exitX=0.5;exitY=0;exitDx=0;exitDy=0;entryX=1;entryY=0.5;entryDx=0;entryDy=0;" edge="1" parent="1" source="y76dJyfz-l1GJOD7nQXj-16" target="y76dJyfz-l1GJOD7nQXj-7">
          <mxGeometry relative="1" as="geometry">
            <mxPoint x="570" y="760" as="sourcePoint" />
          </mxGeometry>
        </mxCell>
        <mxCell id="y76dJyfz-l1GJOD7nQXj-16" value="Nuevo Nombre" style="shape=parallelogram;html=1;strokeWidth=2;perimeter=parallelogramPerimeter;whiteSpace=wrap;rounded=1;arcSize=12;size=0.23;" vertex="1" parent="1">
          <mxGeometry x="510" y="755" width="140" height="70" as="geometry" />
        </mxCell>
        <mxCell id="y76dJyfz-l1GJOD7nQXj-22" value="" style="edgeStyle=orthogonalEdgeStyle;rounded=0;orthogonalLoop=1;jettySize=auto;html=1;" edge="1" parent="1" source="y76dJyfz-l1GJOD7nQXj-18" target="y76dJyfz-l1GJOD7nQXj-21">
          <mxGeometry relative="1" as="geometry" />
        </mxCell>
        <mxCell id="y76dJyfz-l1GJOD7nQXj-18" value="Guardarlo en la base de datos" style="rounded=1;whiteSpace=wrap;html=1;dashed=0;" vertex="1" parent="1">
          <mxGeometry x="315" y="930" width="120" height="60" as="geometry" />
        </mxCell>
        <mxCell id="y76dJyfz-l1GJOD7nQXj-21" value="Fin" style="html=1;dashed=0;whiteSpace=wrap;shape=mxgraph.dfd.start" vertex="1" parent="1">
          <mxGeometry x="310" y="1080" width="130" height="40" as="geometry" />
        </mxCell>
      </root>
    </mxGraphModel>
  </diagram>
  <diagram id="IezTMaKGBwKcjfoO2uHJ" name="Inicio de Sesión">
    <mxGraphModel dx="880" dy="460" grid="1" gridSize="10" guides="1" tooltips="1" connect="1" arrows="1" fold="1" page="1" pageScale="1" pageWidth="827" pageHeight="1169" math="0" shadow="0">
      <root>
        <mxCell id="0" />
        <mxCell id="1" parent="0" />
        <mxCell id="_CuET5KwwIEt0o_gb-XE-4" value="" style="edgeStyle=orthogonalEdgeStyle;rounded=0;orthogonalLoop=1;jettySize=auto;html=1;" edge="1" parent="1" source="_CuET5KwwIEt0o_gb-XE-1" target="_CuET5KwwIEt0o_gb-XE-3">
          <mxGeometry relative="1" as="geometry" />
        </mxCell>
        <mxCell id="_CuET5KwwIEt0o_gb-XE-1" value="Inicio" style="html=1;dashed=0;whiteSpace=wrap;shape=mxgraph.dfd.start" vertex="1" parent="1">
          <mxGeometry x="310" y="70" width="130" height="40" as="geometry" />
        </mxCell>
        <mxCell id="_CuET5KwwIEt0o_gb-XE-2" value="Fin" style="html=1;dashed=0;whiteSpace=wrap;shape=mxgraph.dfd.start" vertex="1" parent="1">
          <mxGeometry x="310" y="910" width="130" height="40" as="geometry" />
        </mxCell>
        <mxCell id="_CuET5KwwIEt0o_gb-XE-6" value="" style="edgeStyle=orthogonalEdgeStyle;rounded=0;orthogonalLoop=1;jettySize=auto;html=1;" edge="1" parent="1" source="_CuET5KwwIEt0o_gb-XE-3" target="_CuET5KwwIEt0o_gb-XE-5">
          <mxGeometry relative="1" as="geometry" />
        </mxCell>
        <mxCell id="_CuET5KwwIEt0o_gb-XE-3" value="Ingresan Credenciales" style="shape=parallelogram;perimeter=parallelogramPerimeter;whiteSpace=wrap;html=1;fixedSize=1;dashed=0;" vertex="1" parent="1">
          <mxGeometry x="315" y="180" width="120" height="60" as="geometry" />
        </mxCell>
        <mxCell id="_CuET5KwwIEt0o_gb-XE-8" value="" style="edgeStyle=orthogonalEdgeStyle;rounded=0;orthogonalLoop=1;jettySize=auto;html=1;" edge="1" parent="1" source="_CuET5KwwIEt0o_gb-XE-5" target="_CuET5KwwIEt0o_gb-XE-7">
          <mxGeometry relative="1" as="geometry" />
        </mxCell>
        <mxCell id="_CuET5KwwIEt0o_gb-XE-5" value="Se busca al usuario en la base de datos" style="rounded=1;whiteSpace=wrap;html=1;dashed=0;" vertex="1" parent="1">
          <mxGeometry x="315" y="320" width="120" height="60" as="geometry" />
        </mxCell>
        <mxCell id="_CuET5KwwIEt0o_gb-XE-10" value="" style="edgeStyle=orthogonalEdgeStyle;rounded=0;orthogonalLoop=1;jettySize=auto;html=1;" edge="1" parent="1" source="_CuET5KwwIEt0o_gb-XE-7" target="_CuET5KwwIEt0o_gb-XE-9">
          <mxGeometry relative="1" as="geometry" />
        </mxCell>
        <mxCell id="_CuET5KwwIEt0o_gb-XE-12" value="No" style="edgeLabel;html=1;align=center;verticalAlign=middle;resizable=0;points=[];" vertex="1" connectable="0" parent="_CuET5KwwIEt0o_gb-XE-10">
          <mxGeometry x="-0.1921" y="-2" relative="1" as="geometry">
            <mxPoint x="-25" y="-12" as="offset" />
          </mxGeometry>
        </mxCell>
        <mxCell id="_CuET5KwwIEt0o_gb-XE-14" value="" style="edgeStyle=orthogonalEdgeStyle;rounded=0;orthogonalLoop=1;jettySize=auto;html=1;" edge="1" parent="1" source="_CuET5KwwIEt0o_gb-XE-7" target="_CuET5KwwIEt0o_gb-XE-13">
          <mxGeometry relative="1" as="geometry" />
        </mxCell>
        <mxCell id="_CuET5KwwIEt0o_gb-XE-15" value="Si" style="edgeLabel;html=1;align=center;verticalAlign=middle;resizable=0;points=[];" vertex="1" connectable="0" parent="_CuET5KwwIEt0o_gb-XE-14">
          <mxGeometry x="-0.36" y="-3" relative="1" as="geometry">
            <mxPoint x="-12" y="-32" as="offset" />
          </mxGeometry>
        </mxCell>
        <mxCell id="_CuET5KwwIEt0o_gb-XE-7" value="Se encontró al usuario?" style="rhombus;whiteSpace=wrap;html=1;rounded=1;dashed=0;" vertex="1" parent="1">
          <mxGeometry x="319.5" y="450" width="111" height="100" as="geometry" />
        </mxCell>
        <mxCell id="_CuET5KwwIEt0o_gb-XE-11" style="edgeStyle=orthogonalEdgeStyle;rounded=0;orthogonalLoop=1;jettySize=auto;html=1;exitX=0.5;exitY=0;exitDx=0;exitDy=0;entryX=1;entryY=0.5;entryDx=0;entryDy=0;" edge="1" parent="1" source="_CuET5KwwIEt0o_gb-XE-9" target="_CuET5KwwIEt0o_gb-XE-3">
          <mxGeometry relative="1" as="geometry">
            <Array as="points">
              <mxPoint x="566" y="210" />
            </Array>
          </mxGeometry>
        </mxCell>
        <mxCell id="_CuET5KwwIEt0o_gb-XE-9" value="Informar del error" style="whiteSpace=wrap;html=1;rounded=1;dashed=0;" vertex="1" parent="1">
          <mxGeometry x="506" y="470" width="120" height="60" as="geometry" />
        </mxCell>
        <mxCell id="_CuET5KwwIEt0o_gb-XE-17" value="" style="edgeStyle=orthogonalEdgeStyle;rounded=0;orthogonalLoop=1;jettySize=auto;html=1;" edge="1" parent="1" source="_CuET5KwwIEt0o_gb-XE-13" target="_CuET5KwwIEt0o_gb-XE-16">
          <mxGeometry relative="1" as="geometry" />
        </mxCell>
        <mxCell id="_CuET5KwwIEt0o_gb-XE-13" value="Se crea token con información del usuario" style="rounded=1;whiteSpace=wrap;html=1;dashed=0;" vertex="1" parent="1">
          <mxGeometry x="315" y="650" width="120" height="60" as="geometry" />
        </mxCell>
        <mxCell id="_CuET5KwwIEt0o_gb-XE-18" value="" style="edgeStyle=orthogonalEdgeStyle;rounded=0;orthogonalLoop=1;jettySize=auto;html=1;" edge="1" parent="1" source="_CuET5KwwIEt0o_gb-XE-16" target="_CuET5KwwIEt0o_gb-XE-2">
          <mxGeometry relative="1" as="geometry" />
        </mxCell>
        <mxCell id="_CuET5KwwIEt0o_gb-XE-16" value="Se entrega el token" style="rounded=1;whiteSpace=wrap;html=1;dashed=0;" vertex="1" parent="1">
          <mxGeometry x="315" y="790" width="120" height="60" as="geometry" />
        </mxCell>
      </root>
    </mxGraphModel>
  </diagram>
</mxfile>
